<?xml version="1.0" encoding="UTF-8" standalone="no"?>
<!DOCTYPE svg PUBLIC "-//W3C//DTD SVG 1.1//EN"
 "http://www.w3.org/Graphics/SVG/1.1/DTD/svg11.dtd">
<!-- Generated by graphviz version 2.40.1 (20161225.0304)
 -->
<!-- Title: dependencies Pages: 1 -->
<svg width="504pt" height="284pt"
 viewBox="0.00 0.00 504.00 284.00" xmlns="http://www.w3.org/2000/svg" xmlns:xlink="http://www.w3.org/1999/xlink">
<g id="graph0" class="graph" transform="scale(1 1) rotate(0) translate(4 280)">
<title>dependencies</title>
<polygon fill="#ffffff" stroke="transparent" points="-4,4 -4,-280 500,-280 500,4 -4,4"/>
<text text-anchor="start" x="227.0091" y="-42.4" font-family="sans-serif" font-weight="bold" font-size="14.00" fill="#000000">Legend</text>
<polygon fill="#ffffb3" stroke="transparent" points="14,-10 14,-30 34,-30 34,-10 14,-10"/>
<text text-anchor="start" x="37.629" y="-15.4" font-family="sans-serif" font-size="14.00" fill="#000000"> &#160;Declarations</text>
<polygon fill="#8dd3c7" stroke="transparent" points="127,-10 127,-30 147,-30 147,-10 127,-10"/>
<text text-anchor="start" x="150.7251" y="-15.4" font-family="sans-serif" font-size="14.00" fill="#000000"> &#160;Module</text>
<polygon fill="#80b1d3" stroke="transparent" points="213,-10 213,-30 233,-30 233,-10 213,-10"/>
<text text-anchor="start" x="236.7812" y="-15.4" font-family="sans-serif" font-size="14.00" fill="#000000"> &#160;Bootstrap</text>
<polygon fill="#fdb462" stroke="transparent" points="310,-10 310,-30 330,-30 330,-10 310,-10"/>
<text text-anchor="start" x="333.6732" y="-15.4" font-family="sans-serif" font-size="14.00" fill="#000000"> &#160;Providers</text>
<polygon fill="#fb8072" stroke="transparent" points="406,-10 406,-30 426,-30 426,-10 406,-10"/>
<text text-anchor="start" x="429.7258" y="-15.4" font-family="sans-serif" font-size="14.00" fill="#000000"> &#160;Exports</text>
<g id="clust1" class="cluster">
<title>cluster_AppModule</title>
<polygon fill="none" stroke="#000000" stroke-dasharray="1,5" points="11,-70 11,-268 151,-268 151,-70 11,-70"/>
</g>
<g id="clust2" class="cluster">
<title>cluster_AppModule_declarations</title>
<polygon fill="none" stroke="#000000" points="20,-78 20,-130 142,-130 142,-78 20,-78"/>
</g>
<g id="clust6" class="cluster">
<title>cluster_AppModule_bootstrap</title>
<polygon fill="none" stroke="#000000" points="19,-208 19,-260 143,-260 143,-208 19,-208"/>
</g>
<g id="clust8" class="cluster">
<title>cluster_VirtualScrollModule</title>
<polygon fill="none" stroke="#000000" stroke-dasharray="1,5" points="159,-70 159,-268 485,-268 485,-70 159,-70"/>
</g>
<g id="clust9" class="cluster">
<title>cluster_VirtualScrollModule_declarations</title>
<polygon fill="none" stroke="#000000" points="307,-78 307,-130 477,-130 477,-78 307,-78"/>
</g>
<g id="clust12" class="cluster">
<title>cluster_VirtualScrollModule_exports</title>
<polygon fill="none" stroke="#000000" points="235,-208 235,-260 409,-260 409,-208 235,-208"/>
</g>
<g id="clust14" class="cluster">
<title>cluster_VirtualScrollModule_providers</title>
<polygon fill="none" stroke="#000000" points="167,-78 167,-130 299,-130 299,-78 167,-78"/>
</g>
<!-- AppComponent -->
<g id="node1" class="node">
<title>AppComponent</title>
<polygon fill="#ffffb3" stroke="#000000" points="133.9399,-122 28.0601,-122 28.0601,-86 133.9399,-86 133.9399,-122"/>
<text text-anchor="middle" x="81" y="-99.8" font-family="Times,serif" font-size="14.00" fill="#000000">AppComponent</text>
</g>
<!-- AppModule -->
<g id="node2" class="node">
<title>AppModule</title>
<polygon fill="#8dd3c7" stroke="#000000" points="122.6571,-187 119.6571,-191 98.6571,-191 95.6571,-187 39.3429,-187 39.3429,-151 122.6571,-151 122.6571,-187"/>
<text text-anchor="middle" x="81" y="-164.8" font-family="Times,serif" font-size="14.00" fill="#000000">AppModule</text>
</g>
<!-- AppComponent&#45;&gt;AppModule -->
<g id="edge1" class="edge">
<title>AppComponent&#45;&gt;AppModule</title>
<path fill="none" stroke="#000000" d="M81,-122.1061C81,-122.1061 81,-140.991 81,-140.991"/>
<polygon fill="#000000" stroke="#000000" points="77.5001,-140.9909 81,-150.991 84.5001,-140.991 77.5001,-140.9909"/>
</g>
<!-- AppComponent  -->
<g id="node3" class="node">
<title>AppComponent </title>
<polygon fill="#80b1d3" stroke="#000000" points="135.439,-252 26.561,-252 26.561,-216 135.439,-216 135.439,-252"/>
<text text-anchor="middle" x="81" y="-229.8" font-family="Times,serif" font-size="14.00" fill="#000000">AppComponent </text>
</g>
<!-- AppModule&#45;&gt;AppComponent  -->
<g id="edge2" class="edge">
<title>AppModule&#45;&gt;AppComponent </title>
<path fill="none" stroke="#000000" stroke-dasharray="1,5" d="M81,-187.1061C81,-187.1061 81,-205.991 81,-205.991"/>
<polygon fill="#000000" stroke="#000000" points="77.5001,-205.9909 81,-215.991 84.5001,-205.991 77.5001,-205.9909"/>
</g>
<!-- VirtualScrollComponent -->
<g id="node4" class="node">
<title>VirtualScrollComponent</title>
<polygon fill="#ffffb3" stroke="#000000" points="469.4256,-122 314.5744,-122 314.5744,-86 469.4256,-86 469.4256,-122"/>
<text text-anchor="middle" x="392" y="-99.8" font-family="Times,serif" font-size="14.00" fill="#000000">VirtualScrollComponent</text>
</g>
<!-- VirtualScrollModule -->
<g id="node5" class="node">
<title>VirtualScrollModule</title>
<polygon fill="#8dd3c7" stroke="#000000" points="388.1429,-187 385.1429,-191 364.1429,-191 361.1429,-187 255.8571,-187 255.8571,-151 388.1429,-151 388.1429,-187"/>
<text text-anchor="middle" x="322" y="-164.8" font-family="Times,serif" font-size="14.00" fill="#000000">VirtualScrollModule</text>
</g>
<!-- VirtualScrollComponent&#45;&gt;VirtualScrollModule -->
<g id="edge3" class="edge">
<title>VirtualScrollComponent&#45;&gt;VirtualScrollModule</title>
<path fill="none" stroke="#000000" d="M351.5544,-122.1061C351.5544,-122.1061 351.5544,-140.991 351.5544,-140.991"/>
<polygon fill="#000000" stroke="#000000" points="348.0544,-140.9909 351.5544,-150.991 355.0544,-140.991 348.0544,-140.9909"/>
</g>
<!-- VirtualScrollComponent  -->
<g id="node6" class="node">
<title>VirtualScrollComponent </title>
<polygon fill="#fb8072" stroke="#000000" points="400.925,-252 243.075,-252 243.075,-216 400.925,-216 400.925,-252"/>
<text text-anchor="middle" x="322" y="-229.8" font-family="Times,serif" font-size="14.00" fill="#000000">VirtualScrollComponent </text>
</g>
<!-- VirtualScrollModule&#45;&gt;VirtualScrollComponent  -->
<g id="edge4" class="edge">
<title>VirtualScrollModule&#45;&gt;VirtualScrollComponent </title>
<path fill="none" stroke="#000000" stroke-dasharray="5,2" d="M322,-187.1061C322,-187.1061 322,-205.991 322,-205.991"/>
<polygon fill="#000000" stroke="#000000" points="318.5001,-205.9909 322,-215.991 325.5001,-205.991 318.5001,-205.9909"/>
</g>
<!-- WindowRef -->
<g id="node7" class="node">
<title>WindowRef</title>
<ellipse fill="#fdb462" stroke="#000000" cx="233" cy="-104" rx="58.4687" ry="18"/>
<text text-anchor="middle" x="233" y="-99.8" font-family="Times,serif" font-size="14.00" fill="#000000">WindowRef</text>
</g>
<!-- WindowRef&#45;&gt;VirtualScrollModule -->
<g id="edge5" class="edge">
<title>WindowRef&#45;&gt;VirtualScrollModule</title>
<path fill="none" stroke="#000000" d="M273.4563,-117.1537C273.4563,-117.1537 273.4563,-140.6938 273.4563,-140.6938"/>
<polygon fill="#000000" stroke="#000000" points="269.9564,-140.6938 273.4563,-150.6938 276.9564,-140.6939 269.9564,-140.6938"/>
</g>
</g>
</svg>
